<?xml version="1.0" ?><svg height="24.0px" id="SVGRoot" version="1.1" viewBox="0 0 24.0 24.0" width="24.0px" xmlns="http://www.w3.org/2000/svg" xmlns:cc="http://creativecommons.org/ns#" xmlns:dc="http://purl.org/dc/elements/1.1/" xmlns:inkscape="http://www.inkscape.org/namespaces/inkscape" xmlns:rdf="http://www.w3.org/1999/02/22-rdf-syntax-ns#" xmlns:sodipodi="http://sodipodi.sourceforge.net/DTD/sodipodi-0.dtd" xmlns:svg="http://www.w3.org/2000/svg"><defs id="defs2"/><g id="layer1"><path d="M 11.919922 2 C 10.646379 2.0146982 9.482193 2.3671108 8.578125 2.9941406 C 7.6792224 3.617588 7.0132653 4.5812057 7.0058594 5.7089844 L 7.0097656 5.6386719 C 7.0097656 5.6386719 7.0024551 5.7130504 7.0019531 5.7167969 C 7.0019412 5.7202735 6.9999993 5.7230828 7 5.7265625 C 6.9999453 5.7331448 7.0000091 5.7395097 7 5.7460938 C 6.9999982 5.7474105 7 5.7486832 7 5.75 C 6.9882771 5.8383315 6.9202267 6.3282216 6.8808594 7.0566406 C 6.8381389 7.8471029 6.8115029 8.7859445 7.03125 9.6367188 C 7.2431802 10.457234 7.7459198 11.567076 8.2128906 12.580078 C 8.4407534 13.074382 8.4849158 13.152828 8.6484375 13.490234 L 2.6054688 16.080078 A 1 1 0 0 0 2.5917969 16.087891 A 1 1 0 0 0 2.5292969 16.117188 A 1 1 0 0 0 2.515625 16.125 A 1 1 0 0 0 2.4453125 16.167969 A 1 1 0 0 0 2.3769531 16.21875 A 1 1 0 0 0 2.3242188 16.261719 A 1 1 0 0 0 2.3125 16.273438 A 1 1 0 0 0 2.2539062 16.333984 A 1 1 0 0 0 2.2109375 16.384766 A 1 1 0 0 0 2.2011719 16.398438 A 1 1 0 0 0 2.1621094 16.453125 A 1 1 0 0 0 2.1542969 16.466797 A 1 1 0 0 0 2.1132812 16.539062 A 1 1 0 0 0 2.1074219 16.548828 A 1 1 0 0 0 2.0820312 16.601562 A 1 1 0 0 0 2.0761719 16.617188 A 1 1 0 0 0 2.046875 16.695312 A 1 1 0 0 0 2.0097656 16.859375 A 1 1 0 0 0 2.0019531 16.943359 A 1 1 0 0 0 2 17.037109 L 2 21 A 1.0001 1.0001 0 0 0 3 22 L 17 22 A 1 1 0 0 0 18 21 A 1 1 0 0 0 17 20 L 4 20 L 4 17.660156 L 10.394531 14.919922 A 1 1 0 0 0 10.919922 13.605469 A 1 1 0 0 0 10.894531 13.554688 C 10.894531 13.554688 10.882973 13.529617 10.882812 13.529297 A 1 1 0 0 0 10.880859 13.525391 C 10.867866 13.499275 10.474364 12.709627 10.029297 11.744141 C 9.5769415 10.762845 9.0795578 9.5657252 8.96875 9.1367188 C 8.8657581 8.7379746 8.8389173 7.8697974 8.8769531 7.1660156 C 8.9149889 6.4622339 8.9902344 5.9082031 8.9902344 5.9082031 A 1.0001 1.0001 0 0 0 9 5.7617188 C 8.9999559 5.758189 9 5.7535442 9 5.75 C 9 5.7464712 8.9999557 5.7437903 9 5.7402344 A 1.0001 1.0001 0 0 0 9 5.7265625 C 8.9999259 5.3743438 9.2003298 4.9949219 9.7167969 4.6367188 C 10.233264 4.2785156 11.034288 4.0104918 11.943359 4 C 11.960152 3.9999233 11.977347 3.9999033 11.994141 4 A 1.0001 1.0001 0 0 0 12 4 C 12.920307 4 13.737388 4.2648355 14.265625 4.625 C 14.793862 4.9851645 15 5.3697742 15 5.7265625 A 1.0001 1.0001 0 0 0 15.009766 5.8613281 C 15.009766 5.8613281 15.085002 6.418055 15.123047 7.1269531 C 15.161092 7.8358512 15.134867 8.7118336 15.03125 9.1152344 C 14.919899 9.5487436 14.423072 10.750181 13.970703 11.736328 C 13.518919 12.721201 13.104586 13.552538 13.103516 13.554688 A 1 1 0 0 0 13.070312 13.628906 A 1 1 0 0 0 13.068359 13.630859 A 1 1 0 0 0 13.050781 13.683594 A 1 1 0 0 0 13.033203 13.744141 A 1 1 0 0 0 13.023438 13.785156 A 1 1 0 0 0 13.021484 13.792969 A 1 1 0 0 0 13.011719 13.847656 A 1 1 0 0 0 13.001953 13.927734 A 1 1 0 0 0 13.001953 13.929688 A 1 1 0 0 0 13.001953 13.931641 A 1 1 0 0 0 13.013672 14.167969 A 1 1 0 0 0 13.019531 14.195312 A 1 1 0 0 0 13.021484 14.208984 A 1 1 0 0 0 13.035156 14.263672 A 1 1 0 0 0 13.083984 14.404297 A 1 1 0 0 0 13.095703 14.429688 A 1 1 0 0 0 13.21875 14.625 A 1 1 0 0 0 13.232422 14.640625 A 1 1 0 0 0 13.263672 14.675781 A 1 1 0 0 0 13.291016 14.707031 A 1 1 0 0 0 13.339844 14.751953 A 1 1 0 0 0 13.34375 14.755859 A 1 1 0 0 0 13.345703 14.755859 A 1 1 0 0 0 13.554688 14.896484 A 1 1 0 0 0 13.628906 14.929688 A 1 1 0 0 0 13.630859 14.931641 A 1 1 0 0 0 13.683594 14.949219 A 1 1 0 0 0 13.71875 14.960938 L 16.683594 15.949219 A 1 1 0 0 0 17.949219 15.316406 A 1 1 0 0 0 17.316406 14.050781 L 15.388672 13.408203 C 15.546128 13.079656 15.578418 13.025253 15.787109 12.570312 C 16.254016 11.552475 16.757248 10.436699 16.96875 9.6132812 C 17.187986 8.759754 17.161809 7.8165188 17.119141 7.0214844 C 17.076473 6.22645 16.990234 5.59375 16.990234 5.59375 C 16.9389 4.5028113 16.275849 3.5748919 15.392578 2.9726562 C 14.474567 2.3467347 13.292301 2.001082 12.005859 2 C 11.97945 1.9998479 11.952191 1.9998479 11.925781 2 A 1.0001 1.0001 0 0 0 11.919922 2 z M 18.615234 15.585938 A 1 1 0 0 0 17.878906 15.878906 A 1 1 0 0 0 17.878906 17.292969 L 18.585938 18 L 17.878906 18.707031 A 1 1 0 0 0 17.878906 20.121094 A 1 1 0 0 0 19.292969 20.121094 L 20 19.414062 L 20.707031 20.121094 A 1 1 0 0 0 22.121094 20.121094 A 1 1 0 0 0 22.121094 18.707031 L 21.414062 18 L 22.121094 17.292969 A 1 1 0 0 0 22.121094 15.878906 A 1 1 0 0 0 21.443359 15.585938 A 1 1 0 0 0 20.707031 15.878906 L 20 16.585938 L 19.292969 15.878906 A 1 1 0 0 0 18.615234 15.585938 z " id="path4991" style="color:#000000;font-style:normal;font-variant:normal;font-weight:normal;font-stretch:normal;font-size:medium;line-height:normal;font-family:sans-serif;font-variant-ligatures:normal;font-variant-position:normal;font-variant-caps:normal;font-variant-numeric:normal;font-variant-alternates:normal;font-variant-east-asian:normal;font-feature-settings:normal;font-variation-settings:normal;text-indent:0;text-align:start;text-decoration:none;text-decoration-line:none;text-decoration-style:solid;text-decoration-color:#000000;letter-spacing:normal;word-spacing:normal;text-transform:none;writing-mode:lr-tb;direction:ltr;text-orientation:mixed;dominant-baseline:auto;baseline-shift:baseline;text-anchor:start;white-space:normal;shape-padding:0;shape-margin:0;inline-size:0;clip-rule:nonzero;display:inline;overflow:visible;visibility:visible;isolation:auto;mix-blend-mode:normal;color-interpolation:sRGB;color-interpolation-filters:linearRGB;solid-color:#000000;solid-opacity:1;vector-effect:none;fill:#000000;fill-opacity:1;fill-rule:nonzero;stroke:none;stroke-width:2;stroke-linecap:round;stroke-linejoin:miter;stroke-miterlimit:4;stroke-dasharray:none;stroke-dashoffset:0;stroke-opacity:1;color-rendering:auto;image-rendering:auto;shape-rendering:auto;text-rendering:auto;enable-background:accumulate;stop-color:#000000"/></g></svg>